<svg width="2369" height="975" xmlns="http://www.w3.org/2000/svg" xmlns:xlink="http://www.w3.org/1999/xlink" xml:space="preserve" overflow="hidden"><defs><clipPath id="clip0"><rect x="-4" y="-4" width="2369" height="975"/></clipPath><clipPath id="clip1"><rect x="0" y="0" width="2359" height="968"/></clipPath><clipPath id="clip2"><rect x="0" y="0" width="2359" height="968"/></clipPath><clipPath id="clip3"><rect x="0" y="0" width="2359" height="968"/></clipPath><clipPath id="clip4"><rect x="0" y="0" width="2359" height="968"/></clipPath><clipPath id="clip5"><rect x="0" y="0" width="2359" height="968"/></clipPath><clipPath id="clip6"><rect x="0" y="0" width="2359" height="968"/></clipPath><clipPath id="clip7"><rect x="0" y="0" width="2359" height="968"/></clipPath><clipPath id="clip8"><rect x="988" y="165" width="1127" height="582"/></clipPath><clipPath id="clip9"><rect x="988" y="165" width="1127" height="582"/></clipPath><clipPath id="clip10"><rect x="988" y="165" width="1127" height="582"/></clipPath><clipPath id="clip11"><rect x="988" y="165" width="1127" height="582"/></clipPath><clipPath id="clip12"><rect x="0" y="0" width="2359" height="968"/></clipPath><clipPath id="clip13"><rect x="0" y="0" width="2359" height="968"/></clipPath><clipPath id="clip14"><rect x="0" y="0" width="2359" height="968"/></clipPath><clipPath id="clip15"><rect x="0" y="0" width="2359" height="968"/></clipPath><clipPath id="clip16"><rect x="0" y="0" width="2359" height="968"/></clipPath><clipPath id="clip17"><rect x="0" y="0" width="2359" height="968"/></clipPath><clipPath id="clip18"><rect x="0" y="0" width="2359" height="968"/></clipPath><clipPath id="clip19"><rect x="0" y="0" width="2359" height="968"/></clipPath><clipPath id="clip20"><rect x="0" y="0" width="2359" height="968"/></clipPath><clipPath id="clip21"><rect x="0" y="0" width="2359" height="968"/></clipPath><clipPath id="clip22"><rect x="0" y="0" width="2359" height="968"/></clipPath><clipPath id="clip23"><rect x="0" y="0" width="2359" height="968"/></clipPath><clipPath id="clip24"><rect x="0" y="0" width="2359" height="968"/></clipPath><clipPath id="clip25"><rect x="0" y="0" width="2359" height="968"/></clipPath><clipPath id="clip26"><rect x="0" y="0" width="2359" height="968"/></clipPath><clipPath id="clip27"><rect x="0" y="0" width="2359" height="968"/></clipPath><clipPath id="clip28"><rect x="0" y="0" width="2359" height="968"/></clipPath><clipPath id="clip29"><rect x="0" y="0" width="2359" height="968"/></clipPath><clipPath id="clip30"><rect x="0" y="0" width="2359" height="968"/></clipPath><clipPath id="clip31"><rect x="0" y="0" width="2359" height="968"/></clipPath><clipPath id="clip32"><rect x="0" y="0" width="2359" height="968"/></clipPath><clipPath id="clip33"><rect x="0" y="0" width="2359" height="968"/></clipPath><clipPath id="clip34"><rect x="0" y="0" width="2359" height="968"/></clipPath><clipPath id="clip35"><rect x="0" y="0" width="2359" height="968"/></clipPath><clipPath id="clip36"><rect x="0" y="0" width="2359" height="968"/></clipPath><clipPath id="clip37"><rect x="0" y="0" width="2359" height="968"/></clipPath><clipPath id="clip38"><rect x="0" y="0" width="2359" height="968"/></clipPath><clipPath id="clip39"><rect x="0" y="0" width="2359" height="968"/></clipPath><clipPath id="clip40"><rect x="0" y="0" width="2359" height="968"/></clipPath><clipPath id="clip41"><rect x="0" y="0" width="2359" height="968"/></clipPath><clipPath id="clip42"><rect x="0" y="0" width="2359" height="968"/></clipPath><clipPath id="clip43"><rect x="0" y="0" width="2359" height="968"/></clipPath><clipPath id="clip44"><rect x="0" y="0" width="2359" height="968"/></clipPath><clipPath id="clip45"><rect x="0" y="0" width="2359" height="968"/></clipPath><clipPath id="clip46"><rect x="0" y="0" width="2359" height="968"/></clipPath></defs><g clip-path="url(#clip0)" transform="translate(4 4)"><rect x="0" y="0" width="2360" height="968" fill="#FFFFFF" fill-opacity="1"/><g clip-path="url(#clip1)"><path d="M988.5 683.523 2111.5 683.523M988.5 622.521 2111.5 622.521M988.5 561.519 2111.5 561.519M988.5 500.517 2111.5 500.517M988.5 439.515 2111.5 439.515M988.5 378.513 2111.5 378.513M988.5 317.511 2111.5 317.511M988.5 256.509 2111.5 256.509M988.5 195.5 2111.5 195.5" stroke="#D9D9D9" stroke-width="3.4375" stroke-linecap="butt" stroke-linejoin="round" stroke-miterlimit="10" stroke-opacity="1" fill="none" fill-rule="nonzero"/></g><g clip-path="url(#clip2)"><path d="M0 0 0.000360892 579" stroke="#BFBFBF" stroke-width="3.4375" stroke-linecap="butt" stroke-linejoin="round" stroke-miterlimit="10" stroke-opacity="1" fill="none" fill-rule="evenodd" transform="matrix(1 0 0 -1 988.5 744.5)"/></g><g clip-path="url(#clip3)"><path d="M974.5 744.5 988.5 744.5M974.5 667.522 988.5 667.522M974.5 590.52 988.5 590.52M974.5 512.517 988.5 512.517M974.5 435.514 988.5 435.514M974.5 358.512 988.5 358.512M974.5 281.509 988.5 281.509M974.5 204.5 988.5 204.5" stroke="#BFBFBF" stroke-width="3.4375" stroke-linecap="butt" stroke-linejoin="round" stroke-miterlimit="10" stroke-opacity="1" fill="none" fill-rule="nonzero"/></g><g clip-path="url(#clip4)"><path d="M988.5 744.5 2111.5 744.5" stroke="#BFBFBF" stroke-width="3.4375" stroke-linecap="butt" stroke-linejoin="round" stroke-miterlimit="10" stroke-opacity="1" fill="none" fill-rule="evenodd"/></g><g clip-path="url(#clip5)"><path d="M988.5 744.5 988.5 758.5M1269.54 744.5 1269.54 758.5M1550.55 744.5 1550.55 758.5M1831.56 744.5 1831.56 758.5M2111.5 744.5 2111.5 758.5" stroke="#BFBFBF" stroke-width="3.4375" stroke-linecap="butt" stroke-linejoin="round" stroke-miterlimit="10" stroke-opacity="1" fill="none" fill-rule="nonzero"/></g><g clip-path="url(#clip6)"><path d="M0 0 0.000360892 579" stroke="#BFBFBF" stroke-width="3.4375" stroke-linecap="butt" stroke-linejoin="round" stroke-miterlimit="10" stroke-opacity="1" fill="none" fill-rule="evenodd" transform="matrix(1 0 0 -1 2111.5 744.5)"/></g><g clip-path="url(#clip7)"><path d="M2111.5 744.5 2125.5 744.5M2111.5 683.523 2125.5 683.523M2111.5 622.521 2125.5 622.521M2111.5 561.519 2125.5 561.519M2111.5 500.517 2125.5 500.517M2111.5 439.515 2125.5 439.515M2111.5 378.513 2125.5 378.513M2111.5 317.511 2125.5 317.511M2111.5 256.509 2125.5 256.509M2111.5 195.5 2125.5 195.5" stroke="#BFBFBF" stroke-width="3.4375" stroke-linecap="butt" stroke-linejoin="round" stroke-miterlimit="10" stroke-opacity="1" fill="none" fill-rule="nonzero"/></g><g clip-path="url(#clip8)"><path d="M1129.5 199.5C1176.31 340.777 1223.11 546.296 1269.92 623.333 1307.69 685.491 1372.58 654.709 1410.34 661.72 1457.15 670.409 1503.96 671.747 1550.76 675.467 1597.57 679.187 1644.38 681.717 1691.18 684.043 1737.99 686.368 1784.8 687.783 1831.61 689.419 1878.41 691.054 1925.22 692.567 1972.03 693.857 2018.83 695.147 2065.64 696.158 2112.45 697.16 2159.25 698.161 2206.06 699.028 2252.87 699.866 2299.68 700.705 2346.48 701.536 2393.29 702.189 2440.1 702.842 2486.9 703.225 2533.71 703.784 2580.52 704.343 2627.32 704.97 2674.13 705.544 2720.94 706.117 2767.75 706.773 2814.55 707.224 2861.36 707.675 2908.17 707.802 2954.97 708.25 3001.78 708.697 3048.59 709.474 3095.39 709.909 3142.2 710.344 3189.01 710.54 3235.82 710.862 3282.62 711.184 3329.43 711.539 3376.24 711.842 3423.04 712.145 3469.85 712.461 3516.66 712.679 3563.46 712.898 3610.27 712.896 3657.08 713.151 3703.89 713.406 3750.69 713.942 3797.5 714.21 3844.31 714.478 3891.11 714.546 3937.92 714.758 3984.73 714.97 4031.54 715.203 4078.34 715.483 4125.15 715.763 4171.96 716.202 4218.76 716.439 4265.57 716.676 4312.38 716.706 4359.18 716.905 4405.99 717.103 4452.8 717.45 4499.61 717.632 4546.41 717.814 4593.22 717.865 4640.03 717.997 4686.83 718.129 4733.64 718.274 4780.45 718.424 4827.25 718.573 4874.06 718.699 4920.87 718.896 4967.68 719.092 5014.48 719.468 5061.29 719.605 5108.1 719.741 5154.9 719.646 5201.71 719.714 5248.52 719.783 5295.32 719.843 5342.13 720.016 5388.94 720.188 5435.75 720.612 5482.55 720.746 5529.36 720.88 5576.17 720.705 5622.97 720.819 5669.78 720.933 5716.59 721.291 5763.4 721.431 5810.2 721.571 5857.01 721.573 5903.82 721.663 5950.62 721.752 5997.43 721.881 6044.24 721.967 6091.04 722.052 6137.85 722.1 6184.66 722.174 6231.46 722.248 6278.27 722.242 6325.08 722.409 6371.89 722.575 6418.69 723.036 6465.5 723.172 6512.31 723.308 6559.11 723.226 6605.92 723.224 6652.73 723.222 6699.54 723.089 6746.34 723.16 6793.15 723.232 6839.96 723.504 6886.76 723.654 6933.57 723.802 6980.38 724.017 7027.18 724.055 7073.99 724.093 7120.8 723.876 7167.61 723.882 7214.41 723.888 7261.22 723.991 7308.03 724.092 7354.83 724.193 7401.64 724.417 7448.45 724.488 7495.25 724.558 7542.06 724.423 7588.87 724.515 7635.68 724.607 7682.48 724.987 7729.29 725.039 7776.1 725.09 7822.9 724.795 7869.71 724.822 7916.52 724.85 7963.32 725.104 8010.13 725.203 8056.94 725.302 8103.75 725.376 8150.55 725.416 8197.36 725.456 8244.17 725.422 8290.97 725.443 8337.78 725.465 8384.59 725.503 8431.39 725.544 8478.2 725.585 8525.01 725.619 8571.82 725.69 8618.62 725.761 8665.43 725.91 8712.24 725.97 8759.04 726.03 8805.85 726.008 8852.66 726.049 8899.47 726.091 8946.27 726.134 8993.08 726.22 9039.89 726.305 9086.69 726.509 9133.5 726.564 9180.31 726.619 9227.11 726.577 9273.92 726.549 9320.73 726.52 9367.54 726.293 9414.34 726.393 9461.15 726.493 9507.96 727.061 9554.76 727.148 9601.57 727.235 9648.38 726.936 9695.18 726.917 9741.99 726.897 9788.8 726.983 9835.61 727.032 9882.41 727.081 9929.22 727.162 9976.03 727.209 10022.8 727.256 10069.6 727.312 10116.4 727.316 10163.3 727.319 10210.1 727.212 10256.9 727.227 10303.7 727.243 10350.5 727.325 10397.3 727.407 10444.1 727.488 10490.9 727.696 10537.7 727.714 10584.5 727.732 10631.3 727.504 10678.1 727.516 10724.9 727.528 10771.7 727.697 10818.6 727.788 10865.4 727.878 10912.2 728 10959 728.062 11005.8 728.123 11052.6 728.164 11099.4 728.156 11146.2 728.147 11193 728.019 11239.8 728.01 11286.6 728 11333.4 728.048 11380.2 728.098 11427 728.148 11473.9 728.274 11520.7 728.308 11567.5 728.342 11614.3 728.27 11661.1 728.302 11707.9 728.334 11778.1 728.467 11801.5 728.5" stroke="#ED7D31" stroke-width="6.875" stroke-linecap="round" stroke-linejoin="round" stroke-miterlimit="10" stroke-opacity="1" fill="none" fill-rule="nonzero"/></g><g clip-path="url(#clip9)"><path d="M1129.5 673.5C1176.3 677.075 1223.11 681.772 1269.91 684.226 1316.71 686.679 1363.52 687.159 1410.32 688.219 1457.12 689.278 1503.92 689.901 1550.73 690.583 1597.53 691.265 1644.33 691.751 1691.14 692.312 1737.94 692.872 1784.74 693.511 1831.55 693.947 1878.35 694.381 1925.15 694.608 1971.95 694.921 2018.76 695.233 2065.56 695.521 2112.36 695.823 2159.17 696.125 2205.97 696.44 2252.77 696.733 2299.58 697.027 2346.38 697.327 2393.18 697.584 2439.98 697.841 2486.79 698.05 2533.59 698.278 2580.39 698.506 2627.2 698.721 2674 698.953 2720.8 699.185 2767.61 699.448 2814.41 699.668 2861.21 699.888 2908.02 700.081 2954.82 700.272 3001.62 700.462 3048.42 700.652 3095.23 700.811 3142.03 700.97 3188.83 701.051 3235.64 701.224 3282.44 701.397 3329.24 701.697 3376.05 701.849 3422.85 702 3469.65 701.966 3516.45 702.132 3563.26 702.299 3610.06 702.698 3656.86 702.847 3703.67 702.997 3750.47 702.919 3797.27 703.028 3844.08 703.137 3890.88 703.44 3937.68 703.505 3984.48 703.569 4031.29 703.366 4078.09 703.417 4124.89 703.469 4171.7 703.722 4218.5 703.815 4265.3 703.908 4312.11 703.91 4358.91 703.975 4405.71 704.041 4452.52 704.16 4499.32 704.208 4546.12 704.255 4592.92 704.197 4639.73 704.262 4686.53 704.326 4733.33 704.471 4780.14 704.594 4826.94 704.716 4873.74 704.942 4920.55 704.998 4967.35 705.054 5014.15 704.886 5060.95 704.928 5107.76 704.97 5154.56 705.205 5201.36 705.248 5248.17 705.291 5294.97 705.156 5341.77 705.185 5388.58 705.213 5435.38 705.338 5482.18 705.42 5528.98 705.502 5575.79 705.627 5622.59 705.679 5669.39 705.732 5716.2 705.67 5763 705.734 5809.8 705.797 5856.61 705.985 5903.41 706.059 5950.21 706.133 5997.02 706.133 6043.82 706.177 6090.62 706.221 6137.42 706.298 6184.23 706.325 6231.03 706.352 6277.83 706.272 6324.64 706.34 6371.44 706.408 6418.24 706.675 6465.04 706.735 6511.85 706.795 6558.65 706.668 6605.45 706.702 6652.26 706.736 6699.06 706.894 6745.86 706.937 6792.67 706.98 6839.47 706.939 6886.27 706.958 6933.08 706.978 6979.88 707.049 7026.68 707.055 7073.48 707.061 7120.29 706.973 7167.09 706.995 7213.89 707.016 7260.7 707.172 7307.5 707.182 7354.3 707.191 7401.11 707.033 7447.91 707.049 7494.71 707.064 7541.51 707.222 7588.32 707.275 7635.12 707.327 7681.92 707.319 7728.73 707.366 7775.53 707.412 7822.33 707.528 7869.14 707.552 7915.94 707.576 7962.74 707.5 8009.55 707.507 8056.35 707.514 8103.15 707.572 8149.95 707.595 8196.76 707.617 8243.56 707.619 8290.36 707.643 8337.17 707.667 8383.97 707.727 8430.77 707.74 8477.58 707.751 8524.38 707.706 8571.18 707.715 8617.98 707.724 8664.79 707.787 8711.59 707.794 8758.39 707.801 8805.2 707.728 8852 707.758 8898.8 707.787 8945.61 707.914 8992.41 707.969 9039.21 708.023 9086.02 708.07 9132.82 708.086 9179.62 708.103 9226.42 708.076 9273.23 708.068 9320.03 708.06 9366.83 708.021 9413.64 708.038 9460.44 708.055 9507.24 708.129 9554.04 708.168 9600.85 708.206 9647.65 708.248 9694.46 708.27 9741.26 708.292 9788.06 708.305 9834.86 708.301 9881.67 708.296 9928.47 708.252 9975.27 708.243 10022.1 708.234 10068.9 708.206 10115.7 708.243 10162.5 708.28 10209.3 708.427 10256.1 708.464 10302.9 708.5 10373.1 708.464 10396.5 708.464" stroke="#FFC000" stroke-width="6.875" stroke-linecap="round" stroke-linejoin="round" stroke-miterlimit="10" stroke-opacity="1" fill="none" fill-rule="nonzero"/></g><g clip-path="url(#clip10)"><path d="M1129.5 500.5C1176.31 433.415 1223.11 338.958 1269.92 299.247 1316.73 259.536 1363.54 269.046 1410.34 262.235 1457.15 255.424 1503.96 260.435 1550.76 258.379 1597.57 256.323 1644.38 251.44 1691.18 249.898 1737.99 248.355 1784.8 249.64 1831.61 249.126 1878.41 248.612 1925.22 246.428 1972.03 246.813 2018.83 247.198 2065.64 250.411 2112.45 251.44 2159.25 252.468 2206.06 253.239 2252.87 252.982 2299.68 252.725 2346.48 250.026 2393.29 249.898 2440.1 249.769 2486.9 251.697 2533.71 252.211 2580.52 252.725 2627.32 253.753 2674.13 252.982 2720.94 252.211 2767.75 248.355 2814.55 247.584 2861.36 246.813 2908.17 248.227 2954.97 248.355 3001.78 248.484 3048.59 247.841 3095.39 248.355 3142.2 248.869 3189.01 251.697 3235.82 251.44 3282.62 251.182 3329.43 246.684 3376.24 246.813 3423.04 246.941 3469.85 251.697 3516.66 252.211 3563.46 252.725 3610.27 250.412 3657.08 249.898 3703.89 249.383 3750.69 248.484 3797.5 249.126 3844.31 249.769 3891.11 253.367 3937.92 253.753 3984.73 254.138 4031.54 251.697 4078.34 251.44 4125.15 251.183 4171.96 251.568 4218.76 252.211 4265.57 252.853 4312.38 256.066 4359.18 255.295 4405.99 254.524 4452.8 247.841 4499.61 247.584 4546.41 247.327 4593.22 253.881 4640.03 253.753 4686.83 253.624 4733.64 248.098 4780.45 246.813 4827.25 245.528 4874.06 245.143 4920.87 246.042 4967.68 246.942 5014.48 251.44 5061.29 252.211 5108.1 252.982 5154.9 250.154 5201.71 250.669 5248.52 251.183 5295.32 255.038 5342.13 255.295 5388.94 255.552 5435.75 253.496 5482.55 252.211 5529.36 250.926 5576.17 248.355 5622.97 247.584 5669.78 246.813 5716.59 247.199 5763.4 247.584 5810.2 247.97 5857.01 250.155 5903.82 249.898 5950.62 249.64 5997.43 245.4 6044.24 246.042 6091.04 246.684 6137.85 253.11 6184.66 253.753 6231.46 254.395 6278.27 250.155 6325.08 249.898 6371.89 249.641 6418.69 252.725 6465.5 252.211 6512.31 251.697 6559.11 247.198 6605.92 246.813 6652.73 246.428 6699.54 249.383 6746.34 249.898 6793.15 250.412 6839.96 249.641 6886.76 249.898 6933.57 250.155 6980.38 251.954 7027.18 251.44 7073.99 250.925 7120.8 247.198 7167.61 246.813 7214.41 246.428 7261.22 248.869 7308.03 249.126 7354.83 249.383 7401.64 249.126 7448.45 248.355 7495.25 247.584 7542.06 244.5 7588.87 244.5 7635.68 244.5 7682.48 246.941 7729.29 248.355 7776.1 249.769 7822.9 253.11 7869.71 252.982 7916.52 252.853 7963.32 247.456 8010.13 247.584 8056.94 247.713 8103.75 253.11 8150.55 253.753 8197.36 254.395 8244.17 251.44 8290.97 251.44 8337.78 251.44 8384.59 254.138 8431.39 253.753 8478.2 253.367 8525.01 247.584 8571.82 249.126 8618.62 250.668 8665.43 263.006 8712.24 263.006 8759.04 263.006 8805.85 251.44 8852.66 249.126 8899.47 246.813 8946.27 247.97 8993.08 249.126 9039.89 250.283 9086.69 254.781 9133.5 256.066 9180.31 257.351 9227.11 257.994 9273.92 256.838 9320.73 255.681 9367.54 249.769 9414.34 249.126 9461.15 248.484 9507.96 253.239 9554.76 252.982 9601.57 252.725 9648.38 247.327 9695.18 247.584 9741.99 247.841 9788.8 254.396 9835.61 254.524 9882.41 254.653 9929.22 248.869 9976.03 248.355 10022.8 247.841 10069.6 251.568 10116.4 251.44 10163.3 251.311 10210.1 248.227 10256.9 247.584 10303.7 246.942 10350.5 247.199 10397.3 247.584 10444.1 247.97 10490.9 249.769 10537.7 249.898 10584.5 250.026 10631.3 248.355 10678.1 248.355 10724.9 248.355 10771.7 249.64 10818.6 249.898 10865.4 250.155 10912.2 250.669 10959 249.898 11005.8 249.126 11052.6 245.4 11099.4 245.271 11146.2 245.143 11193 248.098 11239.8 249.126 11286.6 250.154 11333.4 250.026 11380.2 251.44 11427 252.853 11473.9 258.122 11520.7 257.608 11567.5 257.094 11614.3 248.998 11661.1 248.355 11707.9 247.713 11778.1 252.853 11801.5 253.753" stroke="#4472C4" stroke-width="6.875" stroke-linecap="round" stroke-linejoin="round" stroke-miterlimit="10" stroke-opacity="1" fill="none" fill-rule="nonzero"/></g><g clip-path="url(#clip11)"><path d="M1129.5 241.5C1176.3 240.991 1223.11 240.354 1269.91 239.973 1316.71 239.591 1363.52 239.464 1410.32 239.209 1457.12 238.955 1503.92 238.7 1550.73 238.446 1597.53 238.191 1644.33 237.809 1691.14 237.682 1737.94 237.555 1784.74 237.809 1831.55 237.682 1878.35 237.555 1925.15 237.045 1971.95 236.918 2018.76 236.791 2065.56 236.918 2112.36 236.918 2159.17 236.918 2205.97 236.791 2252.77 236.918 2299.58 237.045 2346.38 237.809 2393.18 237.682 2439.98 237.555 2486.79 236.409 2533.59 236.155 2580.39 235.9 2627.2 236.027 2674 236.155 2720.8 236.282 2767.61 237.045 2814.41 236.918 2861.21 236.791 2908.02 235.391 2954.82 235.391 3001.62 235.391 3048.42 236.791 3095.23 236.918 3142.03 237.045 3188.83 236.282 3235.64 236.155 3282.44 236.027 3329.24 236.155 3376.05 236.155 3422.85 236.155 3469.65 236.155 3516.45 236.155 3563.26 236.155 3610.06 236.282 3656.86 236.155 3703.67 236.027 3750.47 235.518 3797.27 235.391 3844.08 235.264 3890.88 235.391 3937.68 235.391 3984.48 235.391 4031.29 235.391 4078.09 235.391 4124.89 235.391 4171.7 235.391 4218.5 235.391 4265.3 235.391 4312.11 235.391 4358.91 235.391 4405.71 235.391 4452.52 235.391 4499.32 235.391 4546.12 235.391 4592.92 235.518 4639.73 235.391 4686.53 235.264 4733.33 234.5 4780.14 234.627 4826.94 234.754 4873.74 235.9 4920.55 236.155 4967.35 236.409 5014.15 236.155 5060.95 236.155 5107.76 236.155 5154.56 236.027 5201.36 236.155 5248.17 236.282 5294.97 236.918 5341.77 236.918 5388.58 236.918 5435.38 236.282 5482.18 236.155 5528.98 236.027 5575.79 236.155 5622.59 236.155 5669.39 236.155 5716.2 236.027 5763 236.155 5809.8 236.282 5856.61 236.918 5903.41 236.918 5950.21 236.918 5997.02 236.282 6043.82 236.155 6090.62 236.027 6137.42 236.155 6184.23 236.155 6231.03 236.155 6277.83 236.027 6324.64 236.155 6371.44 236.282 6418.24 236.791 6465.04 236.918 6511.85 237.045 6558.65 236.918 6605.45 236.918 6652.26 236.918 6699.06 236.918 6745.86 236.918 6792.67 236.918 6839.47 236.918 6886.27 236.918 6933.08 236.918 6979.88 236.918 7026.68 236.918 7073.48 236.918 7120.29 236.791 7167.09 236.918 7213.89 237.045 7260.7 237.682 7307.5 237.682 7354.3 237.682 7401.11 237.045 7447.91 236.918 7494.71 236.791 7541.51 236.791 7588.32 236.918 7635.12 237.045 7681.92 237.682 7728.73 237.682 7775.53 237.682 7822.33 237.045 7869.14 236.918 7915.94 236.791 7962.74 236.918 8009.55 236.918 8056.35 236.918 8103.15 236.918 8149.95 236.918 8196.76 236.918 8243.56 236.791 8290.36 236.918 8337.17 237.045 8383.97 237.682 8430.77 237.682 8477.58 237.682 8524.38 237.045 8571.18 236.918 8617.98 236.791 8664.79 236.918 8711.59 236.918 8758.39 236.918 8805.2 236.918 8852 236.918 8898.8 236.918 8945.61 236.918 8992.41 236.918 9039.21 236.918 9086.02 236.918 9132.82 236.918 9179.62 236.918 9226.42 236.918 9273.23 236.918 9320.03 236.918 9366.83 236.918 9413.64 236.918 9460.44 236.918 9507.24 236.918 9554.04 236.918 9600.85 236.918 9647.65 236.918 9694.46 236.918 9741.26 236.918 9788.06 236.918 9834.86 236.918 9881.67 236.918 9928.47 236.918 9975.27 236.918 10022.1 236.918 10068.9 236.918 10115.7 236.918 10162.5 236.918 10209.3 236.791 10256.1 236.918 10302.9 237.045 10373.1 237.555 10396.5 237.682" stroke="#A5A5A5" stroke-width="6.875" stroke-linecap="round" stroke-linejoin="round" stroke-miterlimit="10" stroke-opacity="1" fill="none" fill-rule="nonzero"/></g><g clip-path="url(#clip12)"><text fill="#000000" fill-opacity="1" font-family="Arial,Arial_MSFontService,sans-serif" font-style="normal" font-variant="normal" font-weight="400" font-stretch="normal" font-size="46" text-anchor="start" direction="ltr" writing-mode="lr-tb" unicode-bidi="normal" text-decoration="none" transform="matrix(1 0 0 1 885.454 759)">0.1</text></g><g clip-path="url(#clip13)"><text fill="#000000" fill-opacity="1" font-family="Arial,Arial_MSFontService,sans-serif" font-style="normal" font-variant="normal" font-weight="400" font-stretch="normal" font-size="46" text-anchor="start" direction="ltr" writing-mode="lr-tb" unicode-bidi="normal" text-decoration="none" transform="matrix(1 0 0 1 885.454 681)">0.2</text></g><g clip-path="url(#clip14)"><text fill="#000000" fill-opacity="1" font-family="Arial,Arial_MSFontService,sans-serif" font-style="normal" font-variant="normal" font-weight="400" font-stretch="normal" font-size="46" text-anchor="start" direction="ltr" writing-mode="lr-tb" unicode-bidi="normal" text-decoration="none" transform="matrix(1 0 0 1 885.454 604)">0.3</text></g><g clip-path="url(#clip15)"><text fill="#000000" fill-opacity="1" font-family="Arial,Arial_MSFontService,sans-serif" font-style="normal" font-variant="normal" font-weight="400" font-stretch="normal" font-size="46" text-anchor="start" direction="ltr" writing-mode="lr-tb" unicode-bidi="normal" text-decoration="none" transform="matrix(1 0 0 1 885.454 527)">0.4</text></g><g clip-path="url(#clip16)"><text fill="#000000" fill-opacity="1" font-family="Arial,Arial_MSFontService,sans-serif" font-style="normal" font-variant="normal" font-weight="400" font-stretch="normal" font-size="46" text-anchor="start" direction="ltr" writing-mode="lr-tb" unicode-bidi="normal" text-decoration="none" transform="matrix(1 0 0 1 885.454 450)">0.5</text></g><g clip-path="url(#clip17)"><text fill="#000000" fill-opacity="1" font-family="Arial,Arial_MSFontService,sans-serif" font-style="normal" font-variant="normal" font-weight="400" font-stretch="normal" font-size="46" text-anchor="start" direction="ltr" writing-mode="lr-tb" unicode-bidi="normal" text-decoration="none" transform="matrix(1 0 0 1 885.454 373)">0.6</text></g><g clip-path="url(#clip18)"><text fill="#000000" fill-opacity="1" font-family="Arial,Arial_MSFontService,sans-serif" font-style="normal" font-variant="normal" font-weight="400" font-stretch="normal" font-size="46" text-anchor="start" direction="ltr" writing-mode="lr-tb" unicode-bidi="normal" text-decoration="none" transform="matrix(1 0 0 1 885.454 295)">0.7</text></g><g clip-path="url(#clip19)"><text fill="#000000" fill-opacity="1" font-family="Arial,Arial_MSFontService,sans-serif" font-style="normal" font-variant="normal" font-weight="400" font-stretch="normal" font-size="46" text-anchor="start" direction="ltr" writing-mode="lr-tb" unicode-bidi="normal" text-decoration="none" transform="matrix(1 0 0 1 885.454 218)">0.8</text></g><g clip-path="url(#clip20)"><text fill="#000000" fill-opacity="1" font-family="Arial,Arial_MSFontService,sans-serif" font-style="normal" font-variant="normal" font-weight="400" font-stretch="normal" font-size="46" text-anchor="start" direction="ltr" writing-mode="lr-tb" unicode-bidi="normal" text-decoration="none" transform="matrix(1 0 0 1 975.864 814)">0</text></g><g clip-path="url(#clip21)"><text fill="#000000" fill-opacity="1" font-family="Arial,Arial_MSFontService,sans-serif" font-style="normal" font-variant="normal" font-weight="400" font-stretch="normal" font-size="46" text-anchor="start" direction="ltr" writing-mode="lr-tb" unicode-bidi="normal" text-decoration="none" transform="matrix(1 0 0 1 1256.71 814)">2</text></g><g clip-path="url(#clip22)"><text fill="#000000" fill-opacity="1" font-family="Arial,Arial_MSFontService,sans-serif" font-style="normal" font-variant="normal" font-weight="400" font-stretch="normal" font-size="46" text-anchor="start" direction="ltr" writing-mode="lr-tb" unicode-bidi="normal" text-decoration="none" transform="matrix(1 0 0 1 1537.55 814)">4</text></g><g clip-path="url(#clip23)"><text fill="#000000" fill-opacity="1" font-family="Arial,Arial_MSFontService,sans-serif" font-style="normal" font-variant="normal" font-weight="400" font-stretch="normal" font-size="46" text-anchor="start" direction="ltr" writing-mode="lr-tb" unicode-bidi="normal" text-decoration="none" transform="matrix(1 0 0 1 1818.39 814)">6</text></g><g clip-path="url(#clip24)"><text fill="#000000" fill-opacity="1" font-family="Arial,Arial_MSFontService,sans-serif" font-style="normal" font-variant="normal" font-weight="400" font-stretch="normal" font-size="46" text-anchor="start" direction="ltr" writing-mode="lr-tb" unicode-bidi="normal" text-decoration="none" transform="matrix(1 0 0 1 2099.23 814)">8</text></g><g clip-path="url(#clip25)"><text fill="#000000" fill-opacity="1" font-family="Arial,Arial_MSFontService,sans-serif" font-style="normal" font-variant="normal" font-weight="400" font-stretch="normal" font-size="46" text-anchor="start" direction="ltr" writing-mode="lr-tb" unicode-bidi="normal" text-decoration="none" transform="matrix(1 0 0 1 2151.42 759)">0.1</text></g><g clip-path="url(#clip26)"><text fill="#000000" fill-opacity="1" font-family="Arial,Arial_MSFontService,sans-serif" font-style="normal" font-variant="normal" font-weight="400" font-stretch="normal" font-size="46" text-anchor="start" direction="ltr" writing-mode="lr-tb" unicode-bidi="normal" text-decoration="none" transform="matrix(1 0 0 1 2151.42 698)">0.3</text></g><g clip-path="url(#clip27)"><text fill="#000000" fill-opacity="1" font-family="Arial,Arial_MSFontService,sans-serif" font-style="normal" font-variant="normal" font-weight="400" font-stretch="normal" font-size="46" text-anchor="start" direction="ltr" writing-mode="lr-tb" unicode-bidi="normal" text-decoration="none" transform="matrix(1 0 0 1 2151.42 637)">0.5</text></g><g clip-path="url(#clip28)"><text fill="#000000" fill-opacity="1" font-family="Arial,Arial_MSFontService,sans-serif" font-style="normal" font-variant="normal" font-weight="400" font-stretch="normal" font-size="46" text-anchor="start" direction="ltr" writing-mode="lr-tb" unicode-bidi="normal" text-decoration="none" transform="matrix(1 0 0 1 2151.42 576)">0.7</text></g><g clip-path="url(#clip29)"><text fill="#000000" fill-opacity="1" font-family="Arial,Arial_MSFontService,sans-serif" font-style="normal" font-variant="normal" font-weight="400" font-stretch="normal" font-size="46" text-anchor="start" direction="ltr" writing-mode="lr-tb" unicode-bidi="normal" text-decoration="none" transform="matrix(1 0 0 1 2151.42 515)">0.9</text></g><g clip-path="url(#clip30)"><text fill="#000000" fill-opacity="1" font-family="Arial,Arial_MSFontService,sans-serif" font-style="normal" font-variant="normal" font-weight="400" font-stretch="normal" font-size="46" text-anchor="start" direction="ltr" writing-mode="lr-tb" unicode-bidi="normal" text-decoration="none" transform="matrix(1 0 0 1 2151.42 454)">1.1</text></g><g clip-path="url(#clip31)"><text fill="#000000" fill-opacity="1" font-family="Arial,Arial_MSFontService,sans-serif" font-style="normal" font-variant="normal" font-weight="400" font-stretch="normal" font-size="46" text-anchor="start" direction="ltr" writing-mode="lr-tb" unicode-bidi="normal" text-decoration="none" transform="matrix(1 0 0 1 2151.42 393)">1.3</text></g><g clip-path="url(#clip32)"><text fill="#000000" fill-opacity="1" font-family="Arial,Arial_MSFontService,sans-serif" font-style="normal" font-variant="normal" font-weight="400" font-stretch="normal" font-size="46" text-anchor="start" direction="ltr" writing-mode="lr-tb" unicode-bidi="normal" text-decoration="none" transform="matrix(1 0 0 1 2151.42 332)">1.5</text></g><g clip-path="url(#clip33)"><text fill="#000000" fill-opacity="1" font-family="Arial,Arial_MSFontService,sans-serif" font-style="normal" font-variant="normal" font-weight="400" font-stretch="normal" font-size="46" text-anchor="start" direction="ltr" writing-mode="lr-tb" unicode-bidi="normal" text-decoration="none" transform="matrix(1 0 0 1 2151.42 271)">1.7</text></g><g clip-path="url(#clip34)"><text fill="#000000" fill-opacity="1" font-family="Arial,Arial_MSFontService,sans-serif" font-style="normal" font-variant="normal" font-weight="400" font-stretch="normal" font-size="46" text-anchor="start" direction="ltr" writing-mode="lr-tb" unicode-bidi="normal" text-decoration="none" transform="matrix(1 0 0 1 2151.42 210)">1.9</text></g><g clip-path="url(#clip35)"><text fill="#000000" fill-opacity="1" font-family="Arial,Arial_MSFontService,sans-serif" font-style="normal" font-variant="normal" font-weight="400" font-stretch="normal" font-size="64" text-anchor="start" direction="ltr" writing-mode="lr-tb" unicode-bidi="normal" text-decoration="none" transform="matrix(6.12323e-17 -1 1 6.12323e-17 2302.62 523)">Loss</text></g><g clip-path="url(#clip36)"><text fill="#000000" fill-opacity="1" font-family="Arial,Arial_MSFontService,sans-serif" font-style="normal" font-variant="normal" font-weight="400" font-stretch="normal" font-size="64" text-anchor="start" direction="ltr" writing-mode="lr-tb" unicode-bidi="normal" text-decoration="none" transform="matrix(1 0 0 1 1443.28 897)">Epochs</text></g><g clip-path="url(#clip37)"><text fill="#000000" fill-opacity="1" font-family="Arial,Arial_MSFontService,sans-serif" font-style="normal" font-variant="normal" font-weight="400" font-stretch="normal" font-size="64" text-anchor="start" direction="ltr" writing-mode="lr-tb" unicode-bidi="normal" text-decoration="none" transform="matrix(6.12323e-17 -1 1 6.12323e-17 835.786 543)">Dice</text></g><g clip-path="url(#clip38)"><text fill="#000000" fill-opacity="1" font-family="Arial,Arial_MSFontService,sans-serif" font-style="normal" font-variant="normal" font-weight="700" font-stretch="normal" font-size="64" text-anchor="start" direction="ltr" writing-mode="lr-tb" unicode-bidi="normal" text-decoration="none" transform="matrix(1 0 0 1 1192.38 67)">Effect of Initialization</text></g><g clip-path="url(#clip39)"><path d="M47.4999 399.5 135.5 399.5" stroke="#ED7D31" stroke-width="6.875" stroke-linecap="round" stroke-linejoin="round" stroke-miterlimit="10" stroke-opacity="1" fill="none" fill-rule="evenodd"/></g><g clip-path="url(#clip40)"><text fill="#000000" fill-opacity="1" font-family="Arial,Arial_MSFontService,sans-serif" font-style="normal" font-variant="normal" font-weight="400" font-stretch="normal" font-size="46" text-anchor="start" direction="ltr" writing-mode="lr-tb" unicode-bidi="normal" text-decoration="none" transform="matrix(1 0 0 1 145.132 414)">Loss (Initialized Randomly)</text></g><g clip-path="url(#clip41)"><path d="M47.4999 460.5 135.5 460.5" stroke="#FFC000" stroke-width="6.875" stroke-linecap="round" stroke-linejoin="round" stroke-miterlimit="10" stroke-opacity="1" fill="none" fill-rule="evenodd"/></g><g clip-path="url(#clip42)"><text fill="#000000" fill-opacity="1" font-family="Arial,Arial_MSFontService,sans-serif" font-style="normal" font-variant="normal" font-weight="400" font-stretch="normal" font-size="46" text-anchor="start" direction="ltr" writing-mode="lr-tb" unicode-bidi="normal" text-decoration="none" transform="matrix(1 0 0 1 145.132 475)">Loss (Initialized from 3T)</text></g><g clip-path="url(#clip43)"><path d="M47.4999 522.5 135.5 522.5" stroke="#4472C4" stroke-width="6.875" stroke-linecap="round" stroke-linejoin="round" stroke-miterlimit="10" stroke-opacity="1" fill="none" fill-rule="evenodd"/></g><g clip-path="url(#clip44)"><text fill="#000000" fill-opacity="1" font-family="Arial,Arial_MSFontService,sans-serif" font-style="normal" font-variant="normal" font-weight="400" font-stretch="normal" font-size="46" text-anchor="start" direction="ltr" writing-mode="lr-tb" unicode-bidi="normal" text-decoration="none" transform="matrix(1 0 0 1 145.132 536)">Dice (Initialized Randomly)</text></g><g clip-path="url(#clip45)"><path d="M47.4999 583.5 135.5 583.5" stroke="#A5A5A5" stroke-width="6.875" stroke-linecap="round" stroke-linejoin="round" stroke-miterlimit="10" stroke-opacity="1" fill="none" fill-rule="evenodd"/></g><g clip-path="url(#clip46)"><text fill="#000000" fill-opacity="1" font-family="Arial,Arial_MSFontService,sans-serif" font-style="normal" font-variant="normal" font-weight="400" font-stretch="normal" font-size="46" text-anchor="start" direction="ltr" writing-mode="lr-tb" unicode-bidi="normal" text-decoration="none" transform="matrix(1 0 0 1 145.132 598)">Dice (Initialized from 3T)</text></g><rect x="0.499836" y="0.499836" width="2360" height="968" stroke="#D9D9D9" stroke-width="3.4375" stroke-linecap="butt" stroke-linejoin="round" stroke-miterlimit="10" stroke-opacity="1" fill="none"/></g></svg>